<svg width="70" height="406" viewBox="0 0 70 406" fill="none" xmlns="http://www.w3.org/2000/svg">
<path d="M9.46832 20.9308L2.95222 16.5318V15.5145L9.46832 11.088V12.4627L4.16196 16.0369L9.46832 19.5561V20.9308ZM12.8151 25V8.75097H14.1623V25H12.8151ZM17.5872 25V11.3904H18.6595L18.852 12.7926C18.9986 12.261 19.3377 11.8578 19.8692 11.5829C20.4191 11.2896 20.9782 11.143 21.5464 11.143C22.5362 11.143 23.2602 11.3171 23.7184 11.6653C24.1767 12.0136 24.4699 12.4627 24.5982 13.0126C24.7265 13.5624 24.7907 14.149 24.7907 14.7722V25H23.471V14.9921C23.471 14.6439 23.4618 14.3048 23.4435 13.9748C23.4251 13.6266 23.3427 13.315 23.196 13.04C23.0677 12.7651 22.8478 12.5452 22.5362 12.3802C22.2246 12.2152 21.7755 12.1327 21.189 12.1327C20.6574 12.1327 20.2267 12.2336 19.8967 12.4352C19.5851 12.6185 19.356 12.8476 19.2094 13.1225C19.0811 13.3791 18.9803 13.6266 18.907 13.8649V25H17.5872ZM30.2953 25.0275C29.9104 25.0275 29.5621 24.9816 29.2505 24.89C28.9389 24.78 28.6731 24.6242 28.4532 24.4226C28.2516 24.2026 28.0958 23.9277 27.9858 23.5978C27.8941 23.2678 27.8483 22.8646 27.8483 22.388V12.2702H26.6386V11.5554L27.9033 11.3904L28.1783 8.83345H29.1405V11.3904H32.1924V12.2702H29.1405V22.1681C29.1405 22.718 29.2414 23.1762 29.443 23.5428C29.6446 23.891 30.057 24.0652 30.6802 24.0652C30.9552 24.0652 31.2393 24.056 31.5325 24.0377C31.8258 24.0193 32.0458 24.001 32.1924 23.9827V24.8625C32.0274 24.8808 31.7708 24.9175 31.4226 24.9725C31.0743 25.0091 30.6985 25.0275 30.2953 25.0275ZM34.0461 25V11.3904H35.1459L35.3108 12.8201C35.5308 12.2702 35.879 11.8853 36.3556 11.6653C36.8505 11.4454 37.3454 11.3171 37.8403 11.2804C38.3352 11.2071 38.7934 11.2163 39.215 11.3079V12.3527C39.1233 12.3344 38.995 12.316 38.8301 12.2977C38.6834 12.2794 38.5185 12.2702 38.3352 12.2702C38.1519 12.2702 37.9686 12.2977 37.7853 12.3527C37.1071 12.3894 36.5297 12.6001 36.0532 12.9851C35.5949 13.3516 35.3658 13.8649 35.3658 14.5247V25H34.0461ZM44.0565 25.1924C43.2134 25.1924 42.526 25.0825 41.9945 24.8625C41.4629 24.6242 41.0688 24.221 40.8122 23.6528C40.5739 23.0845 40.4548 22.3147 40.4548 21.3433V14.8272C40.4548 13.5258 40.7206 12.591 41.2521 12.0228C41.802 11.4546 42.7368 11.1704 44.0565 11.1704C45.3762 11.1704 46.3019 11.4546 46.8334 12.0228C47.365 12.5726 47.6308 13.5074 47.6308 14.8272V21.3433C47.6308 22.2964 47.5116 23.0571 47.2733 23.6253C47.035 24.1935 46.6501 24.5967 46.1186 24.835C45.6054 25.0733 44.918 25.1924 44.0565 25.1924ZM44.0565 24.3126C44.8813 24.3126 45.4587 24.111 45.7886 23.7077C46.1369 23.3045 46.311 22.5713 46.311 21.5082V14.8272C46.311 13.8374 46.1461 13.1317 45.8161 12.7101C45.4862 12.2702 44.8997 12.0503 44.0565 12.0503C43.2317 12.0503 42.6452 12.261 42.2969 12.6826C41.9486 13.0859 41.7745 13.8007 41.7745 14.8272V21.5082C41.7745 22.553 41.9486 23.2862 42.2969 23.7077C42.6452 24.111 43.2317 24.3126 44.0565 24.3126ZM50.2882 20.9308V19.5286L55.5946 16.0094L50.2882 12.4352V11.088L56.8043 15.487V16.5043L50.2882 20.9308Z" fill="#9A9B9B"/>
<path d="M8.45866 393.476L1.94256 389.077V388.059L8.45866 383.633V385.007L3.1523 388.582L8.45866 392.101V393.476ZM11.2005 398.809L20.631 380.196H21.7583L12.3003 398.809H11.2005ZM24.4177 397.545V383.935H25.7099V397.545H24.4177ZM25.0775 382.203C24.8393 382.203 24.6376 382.121 24.4727 381.956C24.3077 381.791 24.2252 381.598 24.2252 381.378C24.2252 381.14 24.3077 380.947 24.4727 380.801C24.6376 380.654 24.8393 380.581 25.0775 380.581C25.2975 380.581 25.4899 380.654 25.6549 380.801C25.8382 380.947 25.9299 381.14 25.9299 381.378C25.9299 381.598 25.8382 381.791 25.6549 381.956C25.4899 382.121 25.2975 382.203 25.0775 382.203ZM28.8479 397.545V383.935H29.9201L30.1126 385.337C30.2592 384.806 30.5983 384.403 31.1299 384.128C31.6798 383.834 32.2388 383.688 32.807 383.688C33.7968 383.688 34.5208 383.862 34.9791 384.21C35.4373 384.558 35.7306 385.007 35.8589 385.557C35.9872 386.107 36.0513 386.694 36.0513 387.317V397.545H34.7316V387.537C34.7316 387.189 34.7224 386.85 34.7041 386.52C34.6858 386.171 34.6033 385.86 34.4567 385.585C34.3284 385.31 34.1084 385.09 33.7968 384.925C33.4852 384.76 33.0361 384.678 32.4496 384.678C31.9181 384.678 31.4873 384.778 31.1574 384.98C30.8458 385.163 30.6167 385.392 30.47 385.667C30.3417 385.924 30.2409 386.171 30.1676 386.41V397.545H28.8479ZM41.5559 397.572C41.171 397.572 40.8228 397.526 40.5112 397.435C40.1996 397.325 39.9338 397.169 39.7138 396.967C39.5122 396.747 39.3564 396.472 39.2464 396.143C39.1548 395.813 39.109 395.409 39.109 394.933V384.815H37.8992V384.1L39.164 383.935L39.4389 381.378H40.4012V383.935H43.453V384.815H40.4012V394.713C40.4012 395.263 40.502 395.721 40.7036 396.088C40.9053 396.436 41.3177 396.61 41.9409 396.61C42.2158 396.61 42.4999 396.601 42.7932 396.582C43.0864 396.564 43.3064 396.546 43.453 396.527V397.407C43.2881 397.426 43.0315 397.462 42.6832 397.517C42.3349 397.554 41.9592 397.572 41.5559 397.572ZM45.3067 397.545V383.935H46.4065L46.5715 385.365C46.7914 384.815 47.1397 384.43 47.6162 384.21C48.1111 383.99 48.606 383.862 49.1009 383.825C49.5958 383.752 50.054 383.761 50.4756 383.853V384.897C50.384 384.879 50.2557 384.861 50.0907 384.842C49.9441 384.824 49.7791 384.815 49.5958 384.815C49.4125 384.815 49.2292 384.842 49.0459 384.897C48.3677 384.934 47.7904 385.145 47.3138 385.53C46.8556 385.896 46.6265 386.41 46.6265 387.069V397.545H45.3067ZM55.3172 397.737C54.474 397.737 53.7867 397.627 53.2551 397.407C52.7236 397.169 52.3295 396.766 52.0729 396.198C51.8346 395.629 51.7154 394.859 51.7154 393.888V387.372C51.7154 386.071 51.9812 385.136 52.5128 384.568C53.0626 383.999 53.9974 383.715 55.3172 383.715C56.6369 383.715 57.5625 383.999 58.0941 384.568C58.6256 385.117 58.8914 386.052 58.8914 387.372V393.888C58.8914 394.841 58.7722 395.602 58.534 396.17C58.2957 396.738 57.9108 397.141 57.3792 397.38C56.866 397.618 56.1786 397.737 55.3172 397.737ZM55.3172 396.857C56.142 396.857 56.7194 396.656 57.0493 396.253C57.3975 395.849 57.5717 395.116 57.5717 394.053V387.372C57.5717 386.382 57.4067 385.676 57.0768 385.255C56.7469 384.815 56.1603 384.595 55.3172 384.595C54.4923 384.595 53.9058 384.806 53.5575 385.227C53.2093 385.631 53.0352 386.345 53.0352 387.372V394.053C53.0352 395.098 53.2093 395.831 53.5575 396.253C53.9058 396.656 54.4923 396.857 55.3172 396.857ZM61.5489 393.476V392.073L66.8552 388.554L61.5489 384.98V383.633L68.065 388.032V389.049L61.5489 393.476Z" fill="#9A9B9B"/>
<rect x="4.12402" y="24.7446" width="2.74941" height="353.299" fill="#9A9B9B"/>
</svg>
