<svg width="154" height="38" viewBox="0 0 154 38" fill="none" xmlns="http://www.w3.org/2000/svg">
<rect x="53" y="38" width="38" height="101" rx="19" transform="rotate(-90 53 38)" fill="#D66853"/>
<path d="M86.5579 13.0568C86.6365 14.8842 86.6267 16.7411 86.5284 18.6274L86.44 28.0295C86.1453 27.9902 85.8211 27.9705 85.4674 27.9705C85.1137 27.9705 84.76 27.9705 84.4063 27.9705C84.0526 27.9705 83.7088 27.9804 83.3747 28C83.0604 28 82.7853 28 82.5495 28C82.5102 27.1551 82.4807 26.2414 82.4611 25.2589C82.4611 24.2765 82.4512 23.2744 82.4316 22.2526C82.4316 21.2309 82.4021 20.2288 82.3432 19.2463C82.3039 18.2639 82.2351 17.36 82.1368 16.5347C81.9993 16.7509 81.8421 17.0947 81.6653 17.5663C81.4884 18.0182 81.3116 18.4898 81.1347 18.9811C80.9579 19.4723 80.7909 19.9046 80.6337 20.2779C80.4765 20.6512 80.3586 20.8379 80.28 20.8379C80.1818 20.8379 80.0639 20.7396 79.9263 20.5432C79.8084 20.327 79.6807 20.0618 79.5432 19.7474C79.4253 19.433 79.2975 19.0989 79.16 18.7453C79.0225 18.3916 78.9046 18.0674 78.8063 17.7726C78.7081 17.4779 78.6196 17.2323 78.5411 17.0358C78.4821 16.8393 78.4526 16.7411 78.4526 16.7411C78.2954 18.5881 78.2365 20.4547 78.2758 22.3411C78.3347 24.2274 78.4232 26.0842 78.5411 27.9116C77.9123 28.0098 77.2246 28.0491 76.4779 28.0295C75.7312 28.0098 75.0435 28 74.4147 28C74.3754 28 74.346 27.9705 74.3263 27.9116C74.3067 27.833 74.287 27.6463 74.2674 27.3516C74.2477 27.0568 74.2281 26.6147 74.2084 26.0253C74.2084 25.4161 74.2084 24.6204 74.2084 23.6379C74.2084 22.6554 74.2084 21.4372 74.2084 19.9832C74.2281 18.5291 74.2379 16.8 74.2379 14.7958C74.2575 12.7916 74.2772 10.4533 74.2968 7.78105C74.5523 7.70246 74.847 7.65333 75.1811 7.63368C75.5151 7.61404 75.8589 7.61404 76.2126 7.63368C76.5663 7.63368 76.92 7.64351 77.2737 7.66316C77.6274 7.66316 77.9712 7.65333 78.3053 7.63368H78.3347C78.5116 7.83018 78.6884 8.13474 78.8653 8.54737C79.0421 8.94035 79.2091 9.36281 79.3663 9.81474C79.5235 10.2667 79.6709 10.6989 79.8084 11.1116C79.9656 11.5242 80.1228 11.8484 80.28 12.0842C80.3389 12.1432 80.3979 12.1726 80.4568 12.1726C80.5158 12.1923 80.6042 12.0056 80.7221 11.6126C80.8596 11.2196 80.9972 10.7677 81.1347 10.2568C81.2919 9.72632 81.4589 9.20561 81.6358 8.69474C81.8323 8.18386 82.0189 7.81053 82.1958 7.57474C82.3333 7.59439 82.5789 7.59439 82.9326 7.57474C83.306 7.55509 83.6989 7.53544 84.1116 7.51579C84.5439 7.49614 84.9761 7.48632 85.4084 7.48632C85.8604 7.46667 86.2435 7.45684 86.5579 7.45684C86.4793 9.34316 86.4793 11.2098 86.5579 13.0568ZM93.3067 20.6905C92.8744 20.6709 92.56 20.6414 92.3635 20.6021V21.1326C92.3832 21.7221 92.4028 22.2035 92.4225 22.5768C92.4618 22.9502 92.5895 23.3137 92.8056 23.6674C93.0414 24.1193 93.3754 24.4533 93.8077 24.6695C94.24 24.8856 94.6625 24.9544 95.0751 24.8758C95.4877 24.7972 95.8316 24.5614 96.1067 24.1684C96.4014 23.7558 96.5291 23.1467 96.4898 22.3411C96.6863 22.3607 96.9516 22.3705 97.2856 22.3705C97.6197 22.3509 97.9635 22.3312 98.3172 22.3116C98.6905 22.2919 99.0442 22.2919 99.3783 22.3116C99.7123 22.3116 99.9874 22.3411 100.204 22.4C100.164 22.9109 100.125 23.4119 100.086 23.9032C100.046 24.3944 99.9972 24.8561 99.9383 25.2884C99.8793 25.7011 99.8007 26.0646 99.7025 26.3789C99.6239 26.6737 99.5158 26.88 99.3783 26.9979C99.0442 27.4695 98.6119 27.8035 98.0814 28C97.5509 28.1965 96.9712 28.3144 96.3425 28.3537C95.7137 28.393 95.0653 28.393 94.3972 28.3537C93.7488 28.3144 93.1495 28.2947 92.5993 28.2947C92.0491 28.2161 91.5383 28.0393 91.0667 27.7642C90.5362 27.3909 90.094 26.9095 89.7404 26.32C89.3867 25.7109 89.1018 25.0526 88.8856 24.3453C88.6695 23.6182 88.5221 22.8519 88.4435 22.0463C88.3649 21.2407 88.3453 20.4351 88.3846 19.6295C88.4435 18.9025 88.5025 18.2049 88.5614 17.5368C88.64 16.8491 88.7972 16.1811 89.033 15.5326C89.2884 14.9628 89.6814 14.4814 90.2119 14.0884C90.7425 13.6758 91.3418 13.3712 92.0098 13.1747C92.6779 12.9586 93.3853 12.8407 94.1319 12.8211C94.8786 12.8014 95.6056 12.88 96.313 13.0568C97.2169 13.214 97.9439 13.5284 98.494 14C99.0442 14.4716 99.4569 15.0414 99.7319 15.7095C100.027 16.3775 100.204 17.1144 100.262 17.92C100.321 18.7256 100.321 19.5411 100.262 20.3663C100.125 20.4056 99.8597 20.4449 99.4667 20.4842C99.0933 20.5235 98.6414 20.5628 98.1109 20.6021C97.6 20.6414 97.0498 20.6709 96.4604 20.6905C95.8709 20.7102 95.3011 20.72 94.7509 20.72C94.2204 20.72 93.739 20.7102 93.3067 20.6905ZM96.7551 16.8295C96.5586 16.4758 96.2835 16.2105 95.9298 16.0337C95.7726 15.9354 95.6154 15.8667 95.4583 15.8274C95.3011 15.7684 95.1144 15.7389 94.8983 15.7389C94.4267 15.7389 94.0435 15.7881 93.7488 15.8863C93.454 15.9846 93.2183 16.1221 93.0414 16.2989C92.8646 16.4758 92.727 16.6821 92.6288 16.9179C92.5502 17.1537 92.4912 17.3993 92.4519 17.6547C92.4126 17.8709 92.393 18.0281 92.393 18.1263C92.4126 18.2049 92.5109 18.2639 92.6877 18.3032C92.8646 18.3228 93.1397 18.3326 93.513 18.3326C93.906 18.313 94.4758 18.3032 95.2225 18.3032C95.7333 18.3032 96.1165 18.313 96.3719 18.3326C96.6274 18.3523 96.8042 18.3621 96.9025 18.3621C97.0204 18.3425 97.0793 18.313 97.0793 18.2737C97.0793 18.2147 97.0793 18.1067 97.0793 17.9495C97.0793 17.5565 96.9712 17.1832 96.7551 16.8295ZM105.931 14C105.951 14.0589 105.961 14.1572 105.961 14.2947C106.039 14.2554 106.216 14.1768 106.491 14.0589C106.786 13.9411 107.071 13.833 107.346 13.7347C107.719 13.6168 108.142 13.5284 108.613 13.4695C109.085 13.3909 109.527 13.3418 109.94 13.3221C110.352 13.3025 110.696 13.3025 110.971 13.3221C111.266 13.3221 111.413 13.3319 111.413 13.3516C111.413 14.0196 111.404 14.6091 111.384 15.12C111.384 15.6309 111.384 16.0926 111.384 16.5053C111.384 16.8982 111.384 17.2618 111.384 17.5958C111.384 17.9298 111.394 18.2442 111.413 18.5389L111.148 18.4505C111.05 18.4112 110.942 18.3818 110.824 18.3621C110.726 18.3228 110.627 18.2835 110.529 18.2442C110.293 18.1853 110.048 18.1361 109.792 18.0968C109.557 18.0575 109.429 18.0379 109.409 18.0379C108.879 17.9789 108.387 17.9495 107.936 17.9495C107.503 17.9495 107.12 18.0182 106.786 18.1558C106.472 18.2933 106.226 18.5095 106.049 18.8042C105.872 19.0989 105.794 19.5214 105.813 20.0716C105.833 20.7593 105.853 21.4077 105.872 22.0168C105.892 22.626 105.902 23.2449 105.902 23.8737C105.902 24.4828 105.902 25.1116 105.902 25.76C105.921 26.3888 105.931 27.0667 105.931 27.7937V27.9116C105.597 28.0098 105.293 28.0688 105.018 28.0884C104.743 28.1081 104.458 28.1081 104.163 28.0884C103.868 28.0884 103.544 28.0786 103.19 28.0589C102.856 28.0393 102.453 28.0491 101.982 28.0884C101.982 25.6716 101.952 23.2547 101.893 20.8379C101.854 18.4211 101.874 15.9158 101.952 13.3221C102.188 13.3418 102.385 13.3614 102.542 13.3811C102.699 13.3811 102.846 13.3811 102.984 13.3811C103.121 13.3811 103.269 13.3811 103.426 13.3811C103.583 13.3614 103.78 13.3418 104.016 13.3221C104.094 13.3221 104.232 13.3123 104.428 13.2926C104.644 13.273 104.86 13.2533 105.077 13.2337C105.312 13.214 105.509 13.214 105.666 13.2337C105.843 13.2337 105.931 13.2533 105.931 13.2926C105.931 13.4498 105.931 13.5677 105.931 13.6463C105.931 13.7249 105.931 13.7937 105.931 13.8526C105.931 13.8919 105.931 13.9411 105.931 14ZM114.13 13.3221C114.837 13.2632 115.505 13.273 116.134 13.3516C116.272 14.0589 116.409 14.8744 116.547 15.7979C116.684 16.7018 116.832 17.6253 116.989 18.5684C117.146 19.5116 117.313 20.4154 117.49 21.28C117.667 22.1249 117.863 22.8421 118.079 23.4316C118.295 22.8421 118.492 22.1053 118.669 21.2211C118.846 20.3172 119.013 19.3839 119.17 18.4211C119.347 17.4582 119.533 16.5249 119.73 15.6211C119.926 14.7172 120.142 13.9705 120.378 13.3811C120.712 13.3811 121.027 13.3712 121.321 13.3516C121.616 13.3319 121.921 13.3123 122.235 13.2926C122.549 13.273 122.874 13.2632 123.208 13.2632C123.542 13.2632 123.915 13.273 124.328 13.2926C123.915 14.4126 123.552 15.5818 123.237 16.8C122.942 17.9986 122.658 19.2267 122.382 20.4842C122.107 21.7418 121.832 23.0091 121.557 24.2863C121.282 25.5439 120.978 26.7916 120.644 28.0295C120.251 28.0884 119.808 28.1179 119.317 28.1179C118.846 28.1375 118.354 28.1375 117.844 28.1179C117.352 28.1179 116.861 28.1081 116.37 28.0884C115.898 28.0884 115.476 28.0884 115.102 28.0884C114.709 25.6323 114.258 23.127 113.747 20.5726C113.236 18.0182 112.666 15.5818 112.037 13.2632C112.745 13.3418 113.442 13.3614 114.13 13.3221ZM129.516 20.6905C129.083 20.6709 128.769 20.6414 128.572 20.6021V21.1326C128.592 21.7221 128.612 22.2035 128.631 22.5768C128.671 22.9502 128.798 23.3137 129.015 23.6674C129.25 24.1193 129.584 24.4533 130.017 24.6695C130.449 24.8856 130.871 24.9544 131.284 24.8758C131.697 24.7972 132.04 24.5614 132.316 24.1684C132.61 23.7558 132.738 23.1467 132.699 22.3411C132.895 22.3607 133.16 22.3705 133.495 22.3705C133.829 22.3509 134.172 22.3312 134.526 22.3116C134.899 22.2919 135.253 22.2919 135.587 22.3116C135.921 22.3116 136.196 22.3411 136.412 22.4C136.373 22.9109 136.334 23.4119 136.295 23.9032C136.255 24.3944 136.206 24.8561 136.147 25.2884C136.088 25.7011 136.01 26.0646 135.911 26.3789C135.833 26.6737 135.725 26.88 135.587 26.9979C135.253 27.4695 134.821 27.8035 134.29 28C133.76 28.1965 133.18 28.3144 132.551 28.3537C131.923 28.393 131.274 28.393 130.606 28.3537C129.958 28.3144 129.358 28.2947 128.808 28.2947C128.258 28.2161 127.747 28.0393 127.276 27.7642C126.745 27.3909 126.303 26.9095 125.949 26.32C125.596 25.7109 125.311 25.0526 125.095 24.3453C124.878 23.6182 124.731 22.8519 124.652 22.0463C124.574 21.2407 124.554 20.4351 124.593 19.6295C124.652 18.9025 124.711 18.2049 124.77 17.5368C124.849 16.8491 125.006 16.1811 125.242 15.5326C125.497 14.9628 125.89 14.4814 126.421 14.0884C126.951 13.6758 127.551 13.3712 128.219 13.1747C128.887 12.9586 129.594 12.8407 130.341 12.8211C131.087 12.8014 131.815 12.88 132.522 13.0568C133.426 13.214 134.153 13.5284 134.703 14C135.253 14.4716 135.666 15.0414 135.941 15.7095C136.236 16.3775 136.412 17.1144 136.471 17.92C136.53 18.7256 136.53 19.5411 136.471 20.3663C136.334 20.4056 136.069 20.4449 135.676 20.4842C135.302 20.5235 134.85 20.5628 134.32 20.6021C133.809 20.6414 133.259 20.6709 132.669 20.6905C132.08 20.7102 131.51 20.72 130.96 20.72C130.429 20.72 129.948 20.7102 129.516 20.6905ZM132.964 16.8295C132.767 16.4758 132.492 16.2105 132.139 16.0337C131.982 15.9354 131.824 15.8667 131.667 15.8274C131.51 15.7684 131.323 15.7389 131.107 15.7389C130.636 15.7389 130.252 15.7881 129.958 15.8863C129.663 15.9846 129.427 16.1221 129.25 16.2989C129.073 16.4758 128.936 16.6821 128.838 16.9179C128.759 17.1537 128.7 17.3993 128.661 17.6547C128.622 17.8709 128.602 18.0281 128.602 18.1263C128.622 18.2049 128.72 18.2639 128.897 18.3032C129.073 18.3228 129.349 18.3326 129.722 18.3326C130.115 18.313 130.685 18.3032 131.431 18.3032C131.942 18.3032 132.325 18.313 132.581 18.3326C132.836 18.3523 133.013 18.3621 133.111 18.3621C133.229 18.3425 133.288 18.313 133.288 18.2737C133.288 18.2147 133.288 18.1067 133.288 17.9495C133.288 17.5565 133.18 17.1832 132.964 16.8295Z" fill="#2E2E4F"/>
<rect opacity="0.5" y="38" width="38" height="62" rx="19" transform="rotate(-90 0 38)" fill="#586F7C"/>
<path d="M18.2232 7.28V7.07368L22.5263 7.01474C22.487 8.86175 22.5067 10.7284 22.5853 12.6147C22.6639 14.5011 22.6835 16.3972 22.6442 18.3032C22.6049 19.1088 22.5754 19.9832 22.5558 20.9263C22.5361 21.8498 22.4281 22.7439 22.2316 23.6084C22.0547 24.473 21.7305 25.2589 21.2589 25.9663C20.807 26.6737 20.1291 27.1944 19.2253 27.5284C18.4 27.9411 17.4961 28.167 16.5137 28.2063C15.5312 28.2653 14.5979 28.1965 13.7137 28C12.9081 27.7642 12.2596 27.3319 11.7684 26.7032C11.2772 26.0744 10.9039 25.3572 10.6484 24.5516C10.393 23.7263 10.226 22.8716 10.1474 21.9874C10.0884 21.0835 10.0786 20.2582 10.1179 19.5116C10.3733 19.4526 10.6877 19.4133 11.0611 19.3937C11.454 19.374 11.8568 19.3642 12.2695 19.3642C12.6821 19.3642 13.0947 19.3839 13.5074 19.4232C13.9396 19.4625 14.3326 19.5116 14.6863 19.5705V19.6V19.7474C14.706 20.0421 14.7354 20.386 14.7747 20.7789C14.8337 21.1523 14.9319 21.5158 15.0695 21.8695C15.207 22.2035 15.3839 22.4884 15.6 22.7242C15.8161 22.96 16.1011 23.0877 16.4547 23.1074C16.7495 23.1663 17.0049 23.1467 17.2211 23.0484C17.4372 22.9502 17.614 22.8028 17.7516 22.6063C17.9088 22.3902 18.0267 22.1544 18.1053 21.8989C18.1839 21.6239 18.233 21.3389 18.2526 21.0442C18.2133 18.8435 18.174 16.5839 18.1347 14.2653C18.1151 11.9467 18.1446 9.61825 18.2232 7.28ZM31.9252 27.1453C31.9448 26.9291 31.9448 26.6835 31.9252 26.4084C31.827 26.4674 31.6992 26.5361 31.542 26.6147C31.4045 26.6933 31.2866 26.7719 31.1884 26.8505C30.7757 27.1453 30.314 27.3811 29.8031 27.5579C29.2922 27.7347 28.7617 27.833 28.2115 27.8526C27.681 27.8723 27.1603 27.8133 26.6494 27.6758C26.1385 27.5382 25.6768 27.2926 25.2641 26.9389C25.0677 26.7621 24.9105 26.3986 24.7926 25.8484C24.6943 25.2786 24.6255 24.6007 24.5862 23.8147C24.5666 23.0288 24.5568 22.174 24.5568 21.2505C24.5764 20.3074 24.5961 19.3642 24.6157 18.4211C24.6354 17.4582 24.655 16.5347 24.6747 15.6505C24.6943 14.7663 24.6845 13.9902 24.6452 13.3221C25.3329 13.2239 25.942 13.1846 26.4726 13.2042C27.0227 13.2042 27.6417 13.2042 28.3294 13.2042C28.3687 13.6561 28.3884 14.167 28.3884 14.7368C28.3884 15.3067 28.3785 15.8961 28.3589 16.5053C28.3589 17.1144 28.3589 17.7235 28.3589 18.3326C28.3785 18.9418 28.408 19.5116 28.4473 20.0421C28.467 20.2779 28.4866 20.5432 28.5062 20.8379C28.5259 21.113 28.5554 21.3881 28.5947 21.6632C28.6536 21.9382 28.7224 22.1839 28.801 22.4C28.8992 22.6161 29.027 22.7832 29.1841 22.9011C29.2038 22.9207 29.2234 22.9305 29.2431 22.9305C29.2627 22.9305 29.2824 22.9404 29.302 22.96C29.4592 23.0386 29.6852 23.1074 29.9799 23.1663C30.2943 23.2056 30.5989 23.186 30.8936 23.1074C31.1884 23.0091 31.4536 22.8323 31.6894 22.5768C31.9252 22.3018 32.0627 21.8989 32.102 21.3684C32.1413 20.7004 32.1512 20.0323 32.1315 19.3642C32.1119 18.6961 32.0824 18.0379 32.0431 17.3895C32.0234 16.7214 32.0038 16.0632 31.9841 15.4147C31.9841 14.7663 32.0333 14.1179 32.1315 13.4695V13.3516C32.4655 13.2533 32.7505 13.1944 32.9862 13.1747C33.2417 13.1551 33.4971 13.1551 33.7526 13.1747C34.008 13.1747 34.2929 13.1846 34.6073 13.2042C34.9217 13.2239 35.3147 13.214 35.7862 13.1747C35.7862 15.5916 35.8059 18.0084 35.8452 20.4253C35.9041 22.8421 35.8943 25.3474 35.8157 27.9411C35.5799 27.9214 35.3834 27.9116 35.2262 27.9116C35.0691 27.8919 34.9217 27.8821 34.7841 27.8821C34.6466 27.8821 34.4992 27.8919 34.342 27.9116C34.1848 27.9116 33.9884 27.9214 33.7526 27.9411C33.674 27.9411 33.5364 27.9607 33.3399 28C33.1434 28.0196 32.947 28.0393 32.7505 28.0589C32.554 28.0786 32.3771 28.0786 32.2199 28.0589C32.0627 28.0589 31.9841 28.0295 31.9841 27.9705C31.9448 27.6365 31.9252 27.3614 31.9252 27.1453ZM43.2783 17.5074V23.9326V27.8821C42.9443 27.8428 42.6103 27.833 42.2762 27.8526C41.9422 27.8723 41.6081 27.9018 41.2741 27.9411C40.9401 27.9607 40.6159 27.9804 40.3015 28C40.0067 28.0196 39.7317 28.0098 39.4762 27.9705C39.4369 27.7347 39.4074 27.3516 39.3878 26.8211C39.3878 26.2709 39.378 25.6618 39.3583 24.9937C39.3583 24.306 39.3583 23.5888 39.3583 22.8421C39.3583 22.0954 39.3583 21.3782 39.3583 20.6905C39.378 19.9832 39.3878 19.3544 39.3878 18.8042C39.4074 18.254 39.4173 17.8316 39.4173 17.5368C39.1029 17.5368 38.7688 17.5368 38.4152 17.5368C38.0811 17.5368 37.7176 17.5467 37.3246 17.5663L37.2362 13.9705C37.6488 13.9705 38.0222 13.9705 38.3562 13.9705C38.7099 13.9705 39.0439 13.9804 39.3583 14C39.319 13.5088 39.3288 12.9782 39.3878 12.4084C39.4467 11.8386 39.5843 11.2884 39.8004 10.7579C40.0362 10.2077 40.3604 9.71649 40.7731 9.28421C41.1857 8.83228 41.726 8.49825 42.3941 8.28211C43.2194 8.00702 44.1134 7.84 45.0762 7.78105C46.0587 7.70246 47.0117 7.68281 47.9352 7.72211C48.0334 8.01684 48.0924 8.34105 48.112 8.69474C48.1513 9.04842 48.1611 9.40211 48.1415 9.75579C48.1218 10.1095 48.0924 10.4533 48.0531 10.7874C48.0138 11.1214 47.9745 11.426 47.9352 11.7011C47.6994 11.6814 47.4243 11.6814 47.1099 11.7011C46.8152 11.7207 46.5008 11.7502 46.1667 11.7895C45.8327 11.8288 45.4987 11.8779 45.1646 11.9368C44.8306 11.9761 44.526 12.0154 44.251 12.0547C43.799 12.1333 43.5141 12.3691 43.3962 12.7621C43.298 13.1354 43.298 13.5677 43.3962 14.0589H47.9057C47.8664 14.2751 47.8566 14.4912 47.8762 14.7074C47.8959 14.9039 47.8959 15.1396 47.8762 15.4147C47.8762 15.6309 47.8762 15.8077 47.8762 15.9453C47.8762 16.0632 47.8664 16.1909 47.8467 16.3284C47.8467 16.466 47.8369 16.6428 47.8173 16.8589C47.7976 17.0751 47.7681 17.3698 47.7288 17.7432C46.7267 17.6842 45.8818 17.6351 45.1941 17.5958C44.526 17.5565 43.8874 17.527 43.2783 17.5074Z" fill="#2E2E4F"/>
</svg>
