<svg width="1440" height="121" viewBox="0 0 1440 121" fill="none" xmlns="http://www.w3.org/2000/svg">
<path d="M850.159 0H-2V85.5H850.159L917.369 120.5H1440V36.5H917.369L850.159 0Z" fill="#FFFDE4"/>
<path d="M61.9875 45.496V51.205L52.9785 45.76C52.4945 45.474 52.0215 45.089 51.5595 44.605C51.1195 44.099 50.8995 43.483 50.8995 42.757V42.46C50.8995 41.734 51.1195 41.129 51.5595 40.645C52.0215 40.139 52.4945 39.743 52.9785 39.457L61.9875 34.012V39.721L56.5095 42.592L61.9875 45.496ZM87.4207 49.555V55H77.8507C75.8927 55 74.1657 54.758 72.6697 54.274C71.1737 53.768 69.9307 53.064 68.9407 52.162C67.9507 51.238 67.2027 50.127 66.6967 48.829C66.1907 47.509 65.9377 46.046 65.9377 44.44V40.81C65.9377 39.204 66.1907 37.752 66.6967 36.454C67.2027 35.134 67.9507 34.023 68.9407 33.121C69.9307 32.197 71.1737 31.493 72.6697 31.009C74.1657 30.503 75.8927 30.25 77.8507 30.25H87.2557V35.695H78.1807C76.1347 35.695 74.7377 36.102 73.9897 36.916C73.2417 37.708 72.8677 39.028 72.8677 40.876V44.374C72.8677 46.222 73.2527 47.553 74.0227 48.367C74.7927 49.159 76.2337 49.555 78.3457 49.555H87.4207ZM90.7109 30.25H96.9809V55H90.7109V30.25ZM107.873 33.484H101.603V29.59H107.873V33.484ZM101.603 55V35.2H107.873V55H101.603ZM131.933 46.948H117.776V47.08C117.776 48.334 118.051 49.17 118.601 49.588C119.151 50.006 120.097 50.215 121.439 50.215H131.471V55H121.802C119.866 55 118.227 54.791 116.885 54.373C115.565 53.933 114.498 53.328 113.684 52.558C112.892 51.766 112.309 50.82 111.935 49.72C111.583 48.62 111.407 47.41 111.407 46.09V43.582C111.407 40.964 112.166 38.874 113.684 37.312C115.202 35.728 117.688 34.936 121.142 34.936H122.462C124.31 34.936 125.85 35.156 127.082 35.596C128.314 36.036 129.282 36.663 129.986 37.477C130.712 38.269 131.218 39.226 131.504 40.348C131.79 41.47 131.933 42.713 131.933 44.077V46.948ZM123.188 39.358H120.614C119.558 39.358 118.821 39.589 118.403 40.051C117.985 40.513 117.776 41.283 117.776 42.361V42.79H125.993V42.361C125.993 41.283 125.773 40.513 125.333 40.051C124.915 39.589 124.2 39.358 123.188 39.358ZM135.174 55V35.2H147.45C150.332 35.2 152.422 35.926 153.72 37.378C155.018 38.83 155.667 40.799 155.667 43.285V55H149.397V43.12C149.397 42.108 149.221 41.393 148.869 40.975C148.539 40.535 147.89 40.315 146.922 40.315H141.444V55H135.174ZM158.251 39.985V35.2H161.452V31.174H167.227V35.2H173.992V39.985H167.227V48.004C167.227 48.84 167.403 49.423 167.755 49.753C168.107 50.061 168.679 50.215 169.471 50.215H173.992V55H168.745C166.017 55 164.059 54.428 162.871 53.284C161.705 52.118 161.122 50.358 161.122 48.004V39.985H158.251ZM177.391 59.95V35.2H191.449C193.891 35.2 195.805 36.014 197.191 37.642C198.577 39.27 199.27 41.426 199.27 44.11V46.09C199.27 48.774 198.577 50.93 197.191 52.558C195.805 54.186 193.891 55 191.449 55H183.661V59.95H177.391ZM189.304 40.084H183.661V50.116H189.304C190.646 50.116 191.57 49.808 192.076 49.192C192.582 48.576 192.835 47.619 192.835 46.321V43.714C192.835 42.416 192.582 41.492 192.076 40.942C191.57 40.37 190.646 40.084 189.304 40.084ZM202.399 42.559C202.399 41.613 202.542 40.7 202.828 39.82C203.114 38.94 203.565 38.159 204.181 37.477C204.797 36.795 205.589 36.245 206.557 35.827C207.547 35.409 208.724 35.2 210.088 35.2H215.896V39.985H211.507C210.385 39.985 209.626 40.183 209.23 40.579C208.856 40.975 208.669 41.657 208.669 42.625V55H202.399V42.559ZM238.53 43.912V46.288C238.53 49.038 237.694 51.238 236.022 52.888C234.372 54.516 232.007 55.33 228.927 55.33H226.617C223.537 55.33 221.161 54.516 219.489 52.888C217.817 51.238 216.981 49.038 216.981 46.288V43.912C216.981 41.162 217.817 38.973 219.489 37.345C221.161 35.695 223.537 34.87 226.617 34.87H228.927C232.007 34.87 234.372 35.695 236.022 37.345C237.694 38.973 238.53 41.162 238.53 43.912ZM232.095 43.384C232.095 42.108 231.853 41.162 231.369 40.546C230.907 39.908 230.071 39.589 228.861 39.589H226.683C225.473 39.589 224.626 39.908 224.142 40.546C223.658 41.162 223.416 42.108 223.416 43.384V46.783C223.416 48.081 223.658 49.049 224.142 49.687C224.626 50.303 225.473 50.611 226.683 50.611H228.861C230.071 50.611 230.907 50.303 231.369 49.687C231.853 49.049 232.095 48.081 232.095 46.783V43.384ZM247.987 33.484H241.717V29.59H247.987V33.484ZM241.717 35.2H247.987V53.449C247.987 55.627 247.393 57.255 246.205 58.333C245.039 59.411 243.433 59.95 241.387 59.95H238.747V55.693H240.265C240.727 55.693 241.079 55.561 241.321 55.297C241.585 55.055 241.717 54.615 241.717 53.977V35.2ZM271.893 46.948H257.736V47.08C257.736 48.334 258.011 49.17 258.561 49.588C259.111 50.006 260.057 50.215 261.399 50.215H271.431V55H261.762C259.826 55 258.187 54.791 256.845 54.373C255.525 53.933 254.458 53.328 253.644 52.558C252.852 51.766 252.269 50.82 251.895 49.72C251.543 48.62 251.367 47.41 251.367 46.09V43.582C251.367 40.964 252.126 38.874 253.644 37.312C255.162 35.728 257.648 34.936 261.102 34.936H262.422C264.27 34.936 265.81 35.156 267.042 35.596C268.274 36.036 269.242 36.663 269.946 37.477C270.672 38.269 271.178 39.226 271.464 40.348C271.75 41.47 271.893 42.713 271.893 44.077V46.948ZM263.148 39.358H260.574C259.518 39.358 258.781 39.589 258.363 40.051C257.945 40.513 257.736 41.283 257.736 42.361V42.79H265.953V42.361C265.953 41.283 265.733 40.513 265.293 40.051C264.875 39.589 264.16 39.358 263.148 39.358ZM284.638 39.985C283.34 39.985 282.383 40.282 281.767 40.876C281.173 41.448 280.876 42.328 280.876 43.516V46.915C280.876 48.235 281.173 49.115 281.767 49.555C282.383 49.995 283.34 50.215 284.638 50.215H291.073V55H284.44C280.898 55 278.346 54.23 276.784 52.69C275.222 51.15 274.441 49.027 274.441 46.321V43.912C274.441 41.206 275.222 39.083 276.784 37.543C278.346 35.981 280.898 35.2 284.44 35.2H298.663V39.985H284.638ZM292.378 39.985V35.2H295.579V31.174H301.354V35.2H308.119V39.985H301.354V48.004C301.354 48.84 301.53 49.423 301.882 49.753C302.234 50.061 302.806 50.215 303.598 50.215H308.119V55H302.872C300.144 55 298.186 54.428 296.998 53.284C295.832 52.118 295.249 50.358 295.249 48.004V39.985H292.378ZM318.852 55V49.951H325.089V36.685C325.089 36.333 325.001 36.069 324.825 35.893C324.671 35.695 324.429 35.596 324.099 35.596H319.182V30.25H325.518C327.388 30.25 328.884 30.822 330.006 31.966C331.128 33.088 331.689 34.518 331.689 36.256V49.951H337.068V55H318.852ZM350.031 45.76L341.022 51.205V45.496L346.5 42.592L341.022 39.721V34.012L350.031 39.457C350.515 39.743 350.977 40.139 351.417 40.645C351.879 41.129 352.11 41.734 352.11 42.46V42.757C352.11 43.483 351.879 44.099 351.417 44.605C350.977 45.089 350.515 45.474 350.031 45.76Z" fill="#F47519"/>
<path d="M616.614 55V35.695H607.209V30.25H632.619V35.695H623.214V55H616.614ZM632.726 42.559C632.726 41.613 632.869 40.7 633.155 39.82C633.441 38.94 633.892 38.159 634.508 37.477C635.124 36.795 635.916 36.245 636.884 35.827C637.874 35.409 639.051 35.2 640.415 35.2H646.223V39.985H641.834C640.712 39.985 639.953 40.183 639.557 40.579C639.183 40.975 638.996 41.657 638.996 42.625V55H632.726V42.559ZM667.834 46.948H653.677V47.08C653.677 48.334 653.952 49.17 654.502 49.588C655.052 50.006 655.998 50.215 657.34 50.215H667.372V55H657.703C655.767 55 654.128 54.791 652.786 54.373C651.466 53.933 650.399 53.328 649.585 52.558C648.793 51.766 648.21 50.82 647.836 49.72C647.484 48.62 647.308 47.41 647.308 46.09V43.582C647.308 40.964 648.067 38.874 649.585 37.312C651.103 35.728 653.589 34.936 657.043 34.936H658.363C660.211 34.936 661.751 35.156 662.983 35.596C664.215 36.036 665.183 36.663 665.887 37.477C666.613 38.269 667.119 39.226 667.405 40.348C667.691 41.47 667.834 42.713 667.834 44.077V46.948ZM659.089 39.358H656.515C655.459 39.358 654.722 39.589 654.304 40.051C653.886 40.513 653.677 41.283 653.677 42.361V42.79H661.894V42.361C661.894 41.283 661.674 40.513 661.234 40.051C660.816 39.589 660.101 39.358 659.089 39.358ZM671.076 55V35.2H683.352C686.234 35.2 688.324 35.926 689.622 37.378C690.92 38.83 691.569 40.799 691.569 43.285V55H685.299V43.12C685.299 42.108 685.123 41.393 684.771 40.975C684.441 40.535 683.792 40.315 682.824 40.315H677.346V55H671.076ZM716.593 30.25V55H702.535C700.093 55 698.179 54.186 696.793 52.558C695.407 50.93 694.714 48.774 694.714 46.09V44.11C694.714 41.426 695.407 39.27 696.793 37.642C698.179 36.014 700.093 35.2 702.535 35.2H710.323V30.25H716.593ZM704.68 50.116H710.323V40.084H704.68C703.338 40.084 702.414 40.392 701.908 41.008C701.402 41.624 701.149 42.581 701.149 43.879V46.486C701.149 47.784 701.402 48.719 701.908 49.291C702.414 49.841 703.338 50.116 704.68 50.116ZM720.645 55V30.25H740.148V35.695H727.245V40.249H740.148V45.694H727.245V55H720.645ZM764.57 43.912V46.288C764.57 49.038 763.734 51.238 762.062 52.888C760.412 54.516 758.047 55.33 754.967 55.33H752.657C749.577 55.33 747.201 54.516 745.529 52.888C743.857 51.238 743.021 49.038 743.021 46.288V43.912C743.021 41.162 743.857 38.973 745.529 37.345C747.201 35.695 749.577 34.87 752.657 34.87H754.967C758.047 34.87 760.412 35.695 762.062 37.345C763.734 38.973 764.57 41.162 764.57 43.912ZM758.135 43.384C758.135 42.108 757.893 41.162 757.409 40.546C756.947 39.908 756.111 39.589 754.901 39.589H752.723C751.513 39.589 750.666 39.908 750.182 40.546C749.698 41.162 749.456 42.108 749.456 43.384V46.783C749.456 48.081 749.698 49.049 750.182 49.687C750.666 50.303 751.513 50.611 752.723 50.611H754.901C756.111 50.611 756.947 50.303 757.409 49.687C757.893 49.049 758.135 48.081 758.135 46.783V43.384ZM777.195 39.985C775.897 39.985 774.94 40.282 774.324 40.876C773.73 41.448 773.433 42.328 773.433 43.516V46.915C773.433 48.235 773.73 49.115 774.324 49.555C774.94 49.995 775.897 50.215 777.195 50.215H784.62V55H776.997C773.455 55 770.903 54.23 769.341 52.69C767.779 51.15 766.998 49.027 766.998 46.321V43.912C766.998 41.206 767.779 39.083 769.341 37.543C770.903 35.981 773.455 35.2 776.997 35.2H784.62V39.985H777.195ZM802.41 49.885V35.2H808.68V55H796.404C793.522 55 791.432 54.274 790.134 52.822C788.836 51.37 788.187 49.401 788.187 46.915V35.2H794.457V47.08C794.457 48.092 794.622 48.818 794.952 49.258C795.304 49.676 795.964 49.885 796.932 49.885H802.41ZM823.408 48.07L818.029 47.014C816.049 46.618 814.531 45.925 813.475 44.935C812.441 43.945 811.924 42.625 811.924 40.975C811.924 40.205 812.067 39.468 812.353 38.764C812.661 38.06 813.123 37.444 813.739 36.916C814.377 36.388 815.18 35.97 816.148 35.662C817.138 35.354 818.304 35.2 819.646 35.2H829.48V39.985H819.151C818.491 39.985 818.051 40.084 817.831 40.282C817.611 40.48 817.501 40.7 817.501 40.942C817.501 41.206 817.6 41.437 817.798 41.635C817.996 41.833 818.337 41.976 818.821 42.064L823.705 43.021C826.125 43.505 827.852 44.231 828.886 45.199C829.942 46.145 830.47 47.41 830.47 48.994C830.47 50.776 829.788 52.228 828.424 53.35C827.082 54.45 825.036 55 822.286 55H812.584V50.215H823.342C824.046 50.215 824.497 50.116 824.695 49.918C824.915 49.72 825.025 49.467 825.025 49.159C825.025 48.829 824.871 48.587 824.563 48.433C824.277 48.279 823.892 48.158 823.408 48.07Z" fill="#F47519"/>
<path d="M1059.69 82.793L1053.75 81.044C1051.46 80.362 1049.77 79.427 1048.67 78.239C1047.57 77.051 1047.02 75.632 1047.02 73.982C1047.02 71.914 1047.74 70.275 1049.19 69.065C1050.65 67.855 1052.69 67.25 1055.33 67.25H1068.04V72.695H1055.3C1054.59 72.695 1054.1 72.827 1053.81 73.091C1053.53 73.333 1053.38 73.608 1053.38 73.916C1053.38 74.312 1053.52 74.642 1053.78 74.906C1054.07 75.148 1054.52 75.357 1055.13 75.533L1061.17 77.282C1063.72 78.03 1065.64 78.954 1066.91 80.054C1068.21 81.132 1068.86 82.65 1068.86 84.608C1068.86 85.62 1068.66 86.577 1068.27 87.479C1067.89 88.381 1067.31 89.162 1066.52 89.822C1065.75 90.482 1064.76 91.01 1063.55 91.406C1062.36 91.802 1060.96 92 1059.36 92H1047.68V86.555H1060.35C1061.18 86.555 1061.77 86.39 1062.1 86.06C1062.43 85.73 1062.59 85.345 1062.59 84.905C1062.59 84.377 1062.38 83.981 1061.96 83.717C1061.57 83.431 1060.81 83.123 1059.69 82.793ZM1091.93 83.948H1077.77V84.08C1077.77 85.334 1078.05 86.17 1078.6 86.588C1079.15 87.006 1080.09 87.215 1081.43 87.215H1091.47V92H1081.8C1079.86 92 1078.22 91.791 1076.88 91.373C1075.56 90.933 1074.49 90.328 1073.68 89.558C1072.89 88.766 1072.3 87.82 1071.93 86.72C1071.58 85.62 1071.4 84.41 1071.4 83.09V80.582C1071.4 77.964 1072.16 75.874 1073.68 74.312C1075.2 72.728 1077.68 71.936 1081.14 71.936H1082.46C1084.3 71.936 1085.84 72.156 1087.08 72.596C1088.31 73.036 1089.28 73.663 1089.98 74.477C1090.71 75.269 1091.21 76.226 1091.5 77.348C1091.78 78.47 1091.93 79.713 1091.93 81.077V83.948ZM1083.18 76.358H1080.61C1079.55 76.358 1078.82 76.589 1078.4 77.051C1077.98 77.513 1077.77 78.283 1077.77 79.361V79.79H1085.99V79.361C1085.99 78.283 1085.77 77.513 1085.33 77.051C1084.91 76.589 1084.19 76.358 1083.18 76.358ZM1095.17 96.95V72.2H1109.23C1111.67 72.2 1113.58 73.014 1114.97 74.642C1116.35 76.27 1117.05 78.426 1117.05 81.11V83.09C1117.05 85.774 1116.35 87.93 1114.97 89.558C1113.58 91.186 1111.67 92 1109.23 92H1101.44V96.95H1095.17ZM1107.08 77.084H1101.44V87.116H1107.08C1108.42 87.116 1109.35 86.808 1109.85 86.192C1110.36 85.576 1110.61 84.619 1110.61 83.321V80.714C1110.61 79.416 1110.36 78.492 1109.85 77.942C1109.35 77.37 1108.42 77.084 1107.08 77.084ZM1118.92 76.985V72.2H1122.12V68.174H1127.9V72.2H1134.66V76.985H1127.9V85.004C1127.9 85.84 1128.07 86.423 1128.43 86.753C1128.78 87.061 1129.35 87.215 1130.14 87.215H1134.66V92H1129.42C1126.69 92 1124.73 91.428 1123.54 90.284C1122.38 89.118 1121.79 87.358 1121.79 85.004V76.985H1118.92ZM1157.25 83.948H1143.09V84.08C1143.09 85.334 1143.37 86.17 1143.92 86.588C1144.47 87.006 1145.41 87.215 1146.76 87.215H1156.79V92H1147.12C1145.18 92 1143.54 91.791 1142.2 91.373C1140.88 90.933 1139.82 90.328 1139 89.558C1138.21 88.766 1137.63 87.82 1137.25 86.72C1136.9 85.62 1136.72 84.41 1136.72 83.09V80.582C1136.72 77.964 1137.48 75.874 1139 74.312C1140.52 72.728 1143.01 71.936 1146.46 71.936H1147.78C1149.63 71.936 1151.17 72.156 1152.4 72.596C1153.63 73.036 1154.6 73.663 1155.3 74.477C1156.03 75.269 1156.54 76.226 1156.82 77.348C1157.11 78.47 1157.25 79.713 1157.25 81.077V83.948ZM1148.51 76.358H1145.93C1144.88 76.358 1144.14 76.589 1143.72 77.051C1143.3 77.513 1143.09 78.283 1143.09 79.361V79.79H1151.31V79.361C1151.31 78.283 1151.09 77.513 1150.65 77.051C1150.23 76.589 1149.52 76.358 1148.51 76.358ZM1160.49 92V72.2H1183.99C1187 72.2 1189.18 72.926 1190.52 74.378C1191.86 75.83 1192.53 77.799 1192.53 80.285V92H1186.26V80.12C1186.26 79.108 1186.09 78.393 1185.74 77.975C1185.41 77.535 1184.76 77.315 1183.79 77.315H1179.63V92H1173.36V77.315H1166.76V92H1160.49ZM1196.39 92V67.25H1202.66V71.87H1210.45C1212.89 71.87 1214.81 72.684 1216.19 74.312C1217.58 75.94 1218.27 78.096 1218.27 80.78V83.09C1218.27 85.774 1217.58 87.93 1216.19 89.558C1214.81 91.186 1212.89 92 1210.45 92H1196.39ZM1208.31 76.754H1202.66V87.116H1208.31C1209.65 87.116 1210.57 86.808 1211.08 86.192C1211.58 85.576 1211.84 84.619 1211.84 83.321V80.384C1211.84 79.086 1211.58 78.162 1211.08 77.612C1210.57 77.04 1209.65 76.754 1208.31 76.754ZM1241.23 83.948H1227.08V84.08C1227.08 85.334 1227.35 86.17 1227.9 86.588C1228.45 87.006 1229.4 87.215 1230.74 87.215H1240.77V92H1231.1C1229.17 92 1227.53 91.791 1226.18 91.373C1224.86 90.933 1223.8 90.328 1222.98 89.558C1222.19 88.766 1221.61 87.82 1221.23 86.72C1220.88 85.62 1220.71 84.41 1220.71 83.09V80.582C1220.71 77.964 1221.47 75.874 1222.98 74.312C1224.5 72.728 1226.99 71.936 1230.44 71.936H1231.76C1233.61 71.936 1235.15 72.156 1236.38 72.596C1237.61 73.036 1238.58 73.663 1239.29 74.477C1240.01 75.269 1240.52 76.226 1240.8 77.348C1241.09 78.47 1241.23 79.713 1241.23 81.077V83.948ZM1232.49 76.358H1229.91C1228.86 76.358 1228.12 76.589 1227.7 77.051C1227.28 77.513 1227.08 78.283 1227.08 79.361V79.79H1235.29V79.361C1235.29 78.283 1235.07 77.513 1234.63 77.051C1234.21 76.589 1233.5 76.358 1232.49 76.358ZM1244.47 79.559C1244.47 78.613 1244.62 77.7 1244.9 76.82C1245.19 75.94 1245.64 75.159 1246.26 74.477C1246.87 73.795 1247.66 73.245 1248.63 72.827C1249.62 72.409 1250.8 72.2 1252.16 72.2H1257.97V76.985H1253.58C1252.46 76.985 1251.7 77.183 1251.31 77.579C1250.93 77.975 1250.74 78.657 1250.74 79.625V92H1244.47V79.559ZM1287.82 86.819V92H1267.4V87.974C1267.4 86.918 1267.51 85.972 1267.73 85.136C1267.95 84.3 1268.33 83.53 1268.88 82.826C1269.43 82.1 1270.16 81.407 1271.06 80.747C1271.98 80.065 1273.14 79.361 1274.53 78.635L1279.77 75.896C1280.34 75.61 1280.75 75.335 1280.99 75.071C1281.24 74.785 1281.36 74.433 1281.36 74.015C1281.36 73.399 1281.15 72.981 1280.73 72.761C1280.31 72.541 1279.75 72.431 1279.05 72.431H1267.93V67.25H1279.61C1282.56 67.25 1284.71 67.789 1286.08 68.867C1287.44 69.923 1288.12 71.375 1288.12 73.223C1288.12 74.257 1287.97 75.148 1287.66 75.896C1287.35 76.644 1286.89 77.315 1286.27 77.909C1285.68 78.503 1284.94 79.075 1284.06 79.625C1283.18 80.153 1282.17 80.725 1281.03 81.341L1276.24 83.948C1275.49 84.344 1275.01 84.707 1274.79 85.037C1274.59 85.367 1274.49 85.741 1274.49 86.159V86.819H1287.82ZM1315.14 81.275C1315.14 82.925 1314.91 84.432 1314.44 85.796C1314 87.16 1313.32 88.326 1312.4 89.294C1311.5 90.262 1310.35 91.01 1308.97 91.538C1307.58 92.066 1305.96 92.33 1304.11 92.33H1301.61C1299.76 92.33 1298.14 92.066 1296.76 91.538C1295.37 90.988 1294.21 90.229 1293.29 89.261C1292.39 88.293 1291.71 87.127 1291.24 85.763C1290.8 84.377 1290.58 82.859 1290.58 81.209V77.777C1290.58 76.149 1290.8 74.664 1291.24 73.322C1291.71 71.98 1292.39 70.836 1293.29 69.89C1294.21 68.944 1295.37 68.218 1296.76 67.712C1298.14 67.184 1299.76 66.92 1301.61 66.92H1304.11C1305.96 66.92 1307.58 67.184 1308.97 67.712C1310.35 68.24 1311.5 68.977 1312.4 69.923C1313.32 70.869 1314 72.024 1314.44 73.388C1314.91 74.73 1315.14 76.215 1315.14 77.843V81.275ZM1297.51 82.265C1297.51 83.981 1297.86 85.202 1298.54 85.928C1299.24 86.632 1300.42 86.984 1302.07 86.984H1303.65C1305.3 86.984 1306.47 86.632 1307.15 85.928C1307.85 85.202 1308.21 83.981 1308.21 82.265V76.919C1308.21 75.203 1307.85 73.993 1307.15 73.289C1306.47 72.585 1305.3 72.233 1303.65 72.233H1302.07C1300.42 72.233 1299.24 72.585 1298.54 73.289C1297.86 73.993 1297.51 75.203 1297.51 76.919V82.265ZM1337.55 86.819V92H1317.12V87.974C1317.12 86.918 1317.23 85.972 1317.45 85.136C1317.67 84.3 1318.06 83.53 1318.61 82.826C1319.16 82.1 1319.88 81.407 1320.79 80.747C1321.71 80.065 1322.87 79.361 1324.25 78.635L1329.5 75.896C1330.07 75.61 1330.48 75.335 1330.72 75.071C1330.96 74.785 1331.08 74.433 1331.08 74.015C1331.08 73.399 1330.87 72.981 1330.46 72.761C1330.04 72.541 1329.48 72.431 1328.77 72.431H1317.65V67.25H1329.33C1332.28 67.25 1334.44 67.789 1335.8 68.867C1337.17 69.923 1337.85 71.375 1337.85 73.223C1337.85 74.257 1337.69 75.148 1337.39 75.896C1337.08 76.644 1336.62 77.315 1336 77.909C1335.41 78.503 1334.67 79.075 1333.79 79.625C1332.91 80.153 1331.9 80.725 1330.75 81.341L1325.97 83.948C1325.22 84.344 1324.74 84.707 1324.52 85.037C1324.32 85.367 1324.22 85.741 1324.22 86.159V86.819H1337.55ZM1344.26 88.205C1342.21 88.205 1340.71 87.798 1339.74 86.984C1338.79 86.148 1338.32 85.103 1338.32 83.849C1338.32 82.991 1338.52 82.155 1338.91 81.341C1339.33 80.505 1340.01 79.493 1340.96 78.305L1346.93 70.814C1347.88 69.626 1348.91 68.68 1350.04 67.976C1351.18 67.272 1352.41 66.92 1353.73 66.92H1354.59C1356.11 66.92 1357.38 67.393 1358.42 68.339C1359.47 69.285 1360 70.781 1360 72.827V83.156H1363.8V88.205H1360V92H1353.57V88.205H1344.26ZM1346.17 83.156H1353.57V73.355C1353.57 73.135 1353.51 72.981 1353.4 72.893C1353.29 72.783 1353.15 72.728 1352.97 72.728C1352.84 72.728 1352.72 72.772 1352.61 72.86C1352.52 72.926 1352.43 73.025 1352.35 73.157L1345.58 81.836C1345.49 81.968 1345.42 82.089 1345.35 82.199C1345.31 82.309 1345.28 82.419 1345.28 82.529C1345.28 82.705 1345.34 82.859 1345.45 82.991C1345.58 83.101 1345.82 83.156 1346.17 83.156Z" fill="#F47519"/>
</svg>
