<svg width="1440" height="121" viewBox="0 0 1440 121" fill="none" xmlns="http://www.w3.org/2000/svg">
<path d="M850.159 0H-2V85.5H850.159L917.369 120.5H1440V36.5H917.369L850.159 0Z" fill="#FFFDE4"/>
<path d="M61.9885 42.496V48.205L52.9794 42.76C52.4954 42.474 52.0224 42.089 51.5604 41.605C51.1204 41.099 50.9004 40.483 50.9004 39.757V39.46C50.9004 38.734 51.1204 38.129 51.5604 37.645C52.0224 37.139 52.4954 36.743 52.9794 36.457L61.9885 31.012V36.721L56.5104 39.592L61.9885 42.496ZM87.4217 46.555V52H77.8517C75.8937 52 74.1667 51.758 72.6707 51.274C71.1747 50.768 69.9317 50.064 68.9417 49.162C67.9517 48.238 67.2037 47.127 66.6977 45.829C66.1917 44.509 65.9387 43.046 65.9387 41.44V37.81C65.9387 36.204 66.1917 34.752 66.6977 33.454C67.2037 32.134 67.9517 31.023 68.9417 30.121C69.9317 29.197 71.1747 28.493 72.6707 28.009C74.1667 27.503 75.8937 27.25 77.8517 27.25H87.2567V32.695H78.1817C76.1357 32.695 74.7387 33.102 73.9907 33.916C73.2427 34.708 72.8687 36.028 72.8687 37.876V41.374C72.8687 43.222 73.2537 44.553 74.0237 45.367C74.7937 46.159 76.2347 46.555 78.3467 46.555H87.4217ZM90.7119 27.25H96.9819V52H90.7119V27.25ZM107.874 30.484H101.604V26.59H107.874V30.484ZM101.604 52V32.2H107.874V52H101.604ZM131.934 43.948H117.777V44.08C117.777 45.334 118.052 46.17 118.602 46.588C119.152 47.006 120.098 47.215 121.44 47.215H131.472V52H121.803C119.867 52 118.228 51.791 116.886 51.373C115.566 50.933 114.499 50.328 113.685 49.558C112.893 48.766 112.31 47.82 111.936 46.72C111.584 45.62 111.408 44.41 111.408 43.09V40.582C111.408 37.964 112.167 35.874 113.685 34.312C115.203 32.728 117.689 31.936 121.143 31.936H122.463C124.311 31.936 125.851 32.156 127.083 32.596C128.315 33.036 129.283 33.663 129.987 34.477C130.713 35.269 131.219 36.226 131.505 37.348C131.791 38.47 131.934 39.713 131.934 41.077V43.948ZM123.189 36.358H120.615C119.559 36.358 118.822 36.589 118.404 37.051C117.986 37.513 117.777 38.283 117.777 39.361V39.79H125.994V39.361C125.994 38.283 125.774 37.513 125.334 37.051C124.916 36.589 124.201 36.358 123.189 36.358ZM135.175 52V32.2H147.451C150.333 32.2 152.423 32.926 153.721 34.378C155.019 35.83 155.668 37.799 155.668 40.285V52H149.398V40.12C149.398 39.108 149.222 38.393 148.87 37.975C148.54 37.535 147.891 37.315 146.923 37.315H141.445V52H135.175ZM158.252 36.985V32.2H161.453V28.174H167.228V32.2H173.993V36.985H167.228V45.004C167.228 45.84 167.404 46.423 167.756 46.753C168.108 47.061 168.68 47.215 169.472 47.215H173.993V52H168.746C166.018 52 164.06 51.428 162.872 50.284C161.706 49.118 161.123 47.358 161.123 45.004V36.985H158.252ZM177.392 56.95V32.2H191.45C193.892 32.2 195.806 33.014 197.192 34.642C198.578 36.27 199.271 38.426 199.271 41.11V43.09C199.271 45.774 198.578 47.93 197.192 49.558C195.806 51.186 193.892 52 191.45 52H183.662V56.95H177.392ZM189.305 37.084H183.662V47.116H189.305C190.647 47.116 191.571 46.808 192.077 46.192C192.583 45.576 192.836 44.619 192.836 43.321V40.714C192.836 39.416 192.583 38.492 192.077 37.942C191.571 37.37 190.647 37.084 189.305 37.084ZM202.4 39.559C202.4 38.613 202.543 37.7 202.829 36.82C203.115 35.94 203.566 35.159 204.182 34.477C204.798 33.795 205.59 33.245 206.558 32.827C207.548 32.409 208.725 32.2 210.089 32.2H215.897V36.985H211.508C210.386 36.985 209.627 37.183 209.231 37.579C208.857 37.975 208.67 38.657 208.67 39.625V52H202.4V39.559ZM238.531 40.912V43.288C238.531 46.038 237.695 48.238 236.023 49.888C234.373 51.516 232.008 52.33 228.928 52.33H226.618C223.538 52.33 221.162 51.516 219.49 49.888C217.818 48.238 216.982 46.038 216.982 43.288V40.912C216.982 38.162 217.818 35.973 219.49 34.345C221.162 32.695 223.538 31.87 226.618 31.87H228.928C232.008 31.87 234.373 32.695 236.023 34.345C237.695 35.973 238.531 38.162 238.531 40.912ZM232.096 40.384C232.096 39.108 231.854 38.162 231.37 37.546C230.908 36.908 230.072 36.589 228.862 36.589H226.684C225.474 36.589 224.627 36.908 224.143 37.546C223.659 38.162 223.417 39.108 223.417 40.384V43.783C223.417 45.081 223.659 46.049 224.143 46.687C224.627 47.303 225.474 47.611 226.684 47.611H228.862C230.072 47.611 230.908 47.303 231.37 46.687C231.854 46.049 232.096 45.081 232.096 43.783V40.384ZM247.988 30.484H241.718V26.59H247.988V30.484ZM241.718 32.2H247.988V50.449C247.988 52.627 247.394 54.255 246.206 55.333C245.04 56.411 243.434 56.95 241.388 56.95H238.748V52.693H240.266C240.728 52.693 241.08 52.561 241.322 52.297C241.586 52.055 241.718 51.615 241.718 50.977V32.2ZM271.894 43.948H257.737V44.08C257.737 45.334 258.012 46.17 258.562 46.588C259.112 47.006 260.058 47.215 261.4 47.215H271.432V52H261.763C259.827 52 258.188 51.791 256.846 51.373C255.526 50.933 254.459 50.328 253.645 49.558C252.853 48.766 252.27 47.82 251.896 46.72C251.544 45.62 251.368 44.41 251.368 43.09V40.582C251.368 37.964 252.127 35.874 253.645 34.312C255.163 32.728 257.649 31.936 261.103 31.936H262.423C264.271 31.936 265.811 32.156 267.043 32.596C268.275 33.036 269.243 33.663 269.947 34.477C270.673 35.269 271.179 36.226 271.465 37.348C271.751 38.47 271.894 39.713 271.894 41.077V43.948ZM263.149 36.358H260.575C259.519 36.358 258.782 36.589 258.364 37.051C257.946 37.513 257.737 38.283 257.737 39.361V39.79H265.954V39.361C265.954 38.283 265.734 37.513 265.294 37.051C264.876 36.589 264.161 36.358 263.149 36.358ZM284.639 36.985C283.341 36.985 282.384 37.282 281.768 37.876C281.174 38.448 280.877 39.328 280.877 40.516V43.915C280.877 45.235 281.174 46.115 281.768 46.555C282.384 46.995 283.341 47.215 284.639 47.215H291.074V52H284.441C280.899 52 278.347 51.23 276.785 49.69C275.223 48.15 274.442 46.027 274.442 43.321V40.912C274.442 38.206 275.223 36.083 276.785 34.543C278.347 32.981 280.899 32.2 284.441 32.2H298.664V36.985H284.639ZM292.379 36.985V32.2H295.58V28.174H301.355V32.2H308.12V36.985H301.355V45.004C301.355 45.84 301.531 46.423 301.883 46.753C302.235 47.061 302.807 47.215 303.599 47.215H308.12V52H302.873C300.145 52 298.187 51.428 296.999 50.284C295.833 49.118 295.25 47.358 295.25 45.004V36.985H292.379ZM338.95 46.819V52H318.523V47.974C318.523 46.918 318.633 45.972 318.853 45.136C319.073 44.3 319.458 43.53 320.008 42.826C320.558 42.1 321.284 41.407 322.186 40.747C323.11 40.065 324.265 39.361 325.651 38.635L330.898 35.896C331.47 35.61 331.877 35.335 332.119 35.071C332.361 34.785 332.482 34.433 332.482 34.015C332.482 33.399 332.273 32.981 331.855 32.761C331.437 32.541 330.876 32.431 330.172 32.431H319.051V27.25H330.733C333.681 27.25 335.837 27.789 337.201 28.867C338.565 29.923 339.247 31.375 339.247 33.223C339.247 34.257 339.093 35.148 338.785 35.896C338.477 36.644 338.015 37.315 337.399 37.909C336.805 38.503 336.068 39.075 335.188 39.625C334.308 40.153 333.296 40.725 332.152 41.341L327.367 43.948C326.619 44.344 326.135 44.707 325.915 45.037C325.717 45.367 325.618 45.741 325.618 46.159V46.819H338.95ZM352.03 42.76L343.021 48.205V42.496L348.499 39.592L343.021 36.721V31.012L352.03 36.457C352.514 36.743 352.976 37.139 353.416 37.645C353.878 38.129 354.109 38.734 354.109 39.46V39.757C354.109 40.483 353.878 41.099 353.416 41.605C352.976 42.089 352.514 42.474 352.03 42.76Z" fill="#F47519"/>
<path d="M657.559 55.429C653.863 55.429 651.223 54.604 649.639 52.954C648.055 51.304 647.263 49.005 647.263 46.057V30.25H653.863V46.684C653.863 47.872 654.127 48.752 654.655 49.324C655.205 49.874 656.14 50.149 657.46 50.149H661.222C662.454 50.149 663.345 49.874 663.895 49.324C664.467 48.752 664.753 47.872 664.753 46.684V30.25H671.353V46.057C671.353 47.531 671.177 48.851 670.825 50.017C670.495 51.183 669.934 52.173 669.142 52.987C668.372 53.779 667.327 54.384 666.007 54.802C664.687 55.22 663.059 55.429 661.123 55.429H657.559ZM675.234 59.95V35.2H689.292C691.734 35.2 693.648 36.014 695.034 37.642C696.42 39.27 697.113 41.426 697.113 44.11V46.09C697.113 48.774 696.42 50.93 695.034 52.558C693.648 54.186 691.734 55 689.292 55H681.504V59.95H675.234ZM687.147 40.084H681.504V50.116H687.147C688.489 50.116 689.413 49.808 689.919 49.192C690.425 48.576 690.678 47.619 690.678 46.321V43.714C690.678 42.416 690.425 41.492 689.919 40.942C689.413 40.37 688.489 40.084 687.147 40.084ZM720.075 46.948H705.918V47.08C705.918 48.334 706.193 49.17 706.743 49.588C707.293 50.006 708.239 50.215 709.581 50.215H719.613V55H709.944C708.008 55 706.369 54.791 705.027 54.373C703.707 53.933 702.64 53.328 701.826 52.558C701.034 51.766 700.451 50.82 700.077 49.72C699.725 48.62 699.549 47.41 699.549 46.09V43.582C699.549 40.964 700.308 38.874 701.826 37.312C703.344 35.728 705.83 34.936 709.284 34.936H710.604C712.452 34.936 713.992 35.156 715.224 35.596C716.456 36.036 717.424 36.663 718.128 37.477C718.854 38.269 719.36 39.226 719.646 40.348C719.932 41.47 720.075 42.713 720.075 44.077V46.948ZM711.33 39.358H708.756C707.7 39.358 706.963 39.589 706.545 40.051C706.127 40.513 705.918 41.283 705.918 42.361V42.79H714.135V42.361C714.135 41.283 713.915 40.513 713.475 40.051C713.057 39.589 712.342 39.358 711.33 39.358ZM723.316 55V35.2H735.592C738.474 35.2 740.564 35.926 741.862 37.378C743.16 38.83 743.809 40.799 743.809 43.285V55H737.539V43.12C737.539 42.108 737.363 41.393 737.011 40.975C736.681 40.535 736.032 40.315 735.064 40.315H729.586V55H723.316ZM768.833 30.25V55H754.775C752.333 55 750.419 54.186 749.033 52.558C747.647 50.93 746.954 48.774 746.954 46.09V44.11C746.954 41.426 747.647 39.27 749.033 37.642C750.419 36.014 752.333 35.2 754.775 35.2H762.563V30.25H768.833ZM756.92 50.116H762.563V40.084H756.92C755.578 40.084 754.654 40.392 754.148 41.008C753.642 41.624 753.389 42.581 753.389 43.879V46.486C753.389 47.784 753.642 48.719 754.148 49.291C754.654 49.841 755.578 50.116 756.92 50.116ZM793.511 43.912V46.288C793.511 49.038 792.675 51.238 791.003 52.888C789.353 54.516 786.988 55.33 783.908 55.33H781.598C778.518 55.33 776.142 54.516 774.47 52.888C772.798 51.238 771.962 49.038 771.962 46.288V43.912C771.962 41.162 772.798 38.973 774.47 37.345C776.142 35.695 778.518 34.87 781.598 34.87H783.908C786.988 34.87 789.353 35.695 791.003 37.345C792.675 38.973 793.511 41.162 793.511 43.912ZM787.076 43.384C787.076 42.108 786.834 41.162 786.35 40.546C785.888 39.908 785.052 39.589 783.842 39.589H781.664C780.454 39.589 779.607 39.908 779.123 40.546C778.639 41.162 778.397 42.108 778.397 43.384V46.783C778.397 48.081 778.639 49.049 779.123 49.687C779.607 50.303 780.454 50.611 781.664 50.611H783.842C785.052 50.611 785.888 50.303 786.35 49.687C786.834 49.049 787.076 48.081 787.076 46.783V43.384Z" fill="#F47519"/>
<path d="M1054.15 92V73.85C1054.15 72.728 1054.34 71.727 1054.71 70.847C1055.08 69.967 1055.57 69.241 1056.16 68.669C1056.78 68.075 1057.49 67.624 1058.31 67.316C1059.14 67.008 1060 66.854 1060.88 66.854C1062.99 66.854 1064.64 67.426 1065.83 68.57C1067.04 69.692 1068.02 71.177 1068.77 73.025L1074.15 86.159C1074.21 86.313 1074.28 86.467 1074.35 86.621C1074.43 86.753 1074.57 86.819 1074.74 86.819C1074.96 86.819 1075.1 86.764 1075.17 86.654C1075.26 86.522 1075.3 86.346 1075.3 86.126V67.25H1081.9V85.433C1081.9 86.599 1081.72 87.622 1081.34 88.502C1080.97 89.382 1080.47 90.119 1079.86 90.713C1079.26 91.285 1078.55 91.714 1077.71 92C1076.9 92.286 1076.05 92.429 1075.17 92.429C1073.06 92.429 1071.41 91.879 1070.22 90.779C1069.05 89.679 1068.08 88.172 1067.28 86.258L1061.9 73.124C1061.84 72.97 1061.76 72.827 1061.67 72.695C1061.61 72.541 1061.49 72.464 1061.31 72.464C1061.09 72.464 1060.94 72.53 1060.85 72.662C1060.78 72.772 1060.75 72.937 1060.75 73.157V92H1054.15ZM1106.81 80.912V83.288C1106.81 86.038 1105.97 88.238 1104.3 89.888C1102.65 91.516 1100.29 92.33 1097.21 92.33H1094.9C1091.82 92.33 1089.44 91.516 1087.77 89.888C1086.1 88.238 1085.26 86.038 1085.26 83.288V80.912C1085.26 78.162 1086.1 75.973 1087.77 74.345C1089.44 72.695 1091.82 71.87 1094.9 71.87H1097.21C1100.29 71.87 1102.65 72.695 1104.3 74.345C1105.97 75.973 1106.81 78.162 1106.81 80.912ZM1100.37 80.384C1100.37 79.108 1100.13 78.162 1099.65 77.546C1099.19 76.908 1098.35 76.589 1097.14 76.589H1094.96C1093.75 76.589 1092.9 76.908 1092.42 77.546C1091.94 78.162 1091.69 79.108 1091.69 80.384V83.783C1091.69 85.081 1091.94 86.049 1092.42 86.687C1092.9 87.303 1093.75 87.611 1094.96 87.611H1097.14C1098.35 87.611 1099.19 87.303 1099.65 86.687C1100.13 86.049 1100.37 85.081 1100.37 83.783V80.384ZM1113.85 72.2L1118.27 86.093C1118.4 86.511 1118.52 86.786 1118.63 86.918C1118.74 87.028 1118.9 87.083 1119.09 87.083C1119.25 87.083 1119.38 87.017 1119.49 86.885C1119.6 86.731 1119.72 86.445 1119.85 86.027L1124.24 72.2H1130.51L1125.17 87.182C1124.53 88.964 1123.72 90.273 1122.76 91.109C1121.79 91.923 1120.57 92.33 1119.09 92.33C1117.51 92.33 1116.21 91.934 1115.2 91.142C1114.19 90.328 1113.38 89.096 1112.79 87.446L1107.38 72.2H1113.85ZM1151.61 83.948H1137.45V84.08C1137.45 85.334 1137.73 86.17 1138.28 86.588C1138.83 87.006 1139.78 87.215 1141.12 87.215H1151.15V92H1141.48C1139.54 92 1137.91 91.791 1136.56 91.373C1135.24 90.933 1134.18 90.328 1133.36 89.558C1132.57 88.766 1131.99 87.82 1131.61 86.72C1131.26 85.62 1131.09 84.41 1131.09 83.09V80.582C1131.09 77.964 1131.84 75.874 1133.36 74.312C1134.88 72.728 1137.37 71.936 1140.82 71.936H1142.14C1143.99 71.936 1145.53 72.156 1146.76 72.596C1147.99 73.036 1148.96 73.663 1149.66 74.477C1150.39 75.269 1150.9 76.226 1151.18 77.348C1151.47 78.47 1151.61 79.713 1151.61 81.077V83.948ZM1142.87 76.358H1140.29C1139.24 76.358 1138.5 76.589 1138.08 77.051C1137.66 77.513 1137.45 78.283 1137.45 79.361V79.79H1145.67V79.361C1145.67 78.283 1145.45 77.513 1145.01 77.051C1144.59 76.589 1143.88 76.358 1142.87 76.358ZM1154.85 92V72.2H1178.35C1181.36 72.2 1183.54 72.926 1184.88 74.378C1186.22 75.83 1186.9 77.799 1186.9 80.285V92H1180.63V80.12C1180.63 79.108 1180.45 78.393 1180.1 77.975C1179.77 77.535 1179.12 77.315 1178.15 77.315H1173.99V92H1167.72V77.315H1161.12V92H1154.85ZM1190.75 92V67.25H1197.02V71.87H1204.81C1207.25 71.87 1209.17 72.684 1210.55 74.312C1211.94 75.94 1212.63 78.096 1212.63 80.78V83.09C1212.63 85.774 1211.94 87.93 1210.55 89.558C1209.17 91.186 1207.25 92 1204.81 92H1190.75ZM1202.67 76.754H1197.02V87.116H1202.67C1204.01 87.116 1204.93 86.808 1205.44 86.192C1205.94 85.576 1206.2 84.619 1206.2 83.321V80.384C1206.2 79.086 1205.94 78.162 1205.44 77.612C1204.93 77.04 1204.01 76.754 1202.67 76.754ZM1235.59 83.948H1221.44V84.08C1221.44 85.334 1221.71 86.17 1222.26 86.588C1222.81 87.006 1223.76 87.215 1225.1 87.215H1235.13V92H1225.46C1223.53 92 1221.89 91.791 1220.55 91.373C1219.23 90.933 1218.16 90.328 1217.34 89.558C1216.55 88.766 1215.97 87.82 1215.6 86.72C1215.24 85.62 1215.07 84.41 1215.07 83.09V80.582C1215.07 77.964 1215.83 75.874 1217.34 74.312C1218.86 72.728 1221.35 71.936 1224.8 71.936H1226.12C1227.97 71.936 1229.51 72.156 1230.74 72.596C1231.97 73.036 1232.94 73.663 1233.65 74.477C1234.37 75.269 1234.88 76.226 1235.16 77.348C1235.45 78.47 1235.59 79.713 1235.59 81.077V83.948ZM1226.85 76.358H1224.27C1223.22 76.358 1222.48 76.589 1222.06 77.051C1221.65 77.513 1221.44 78.283 1221.44 79.361V79.79H1229.65V79.361C1229.65 78.283 1229.43 77.513 1228.99 77.051C1228.58 76.589 1227.86 76.358 1226.85 76.358ZM1238.83 79.559C1238.83 78.613 1238.98 77.7 1239.26 76.82C1239.55 75.94 1240 75.159 1240.62 74.477C1241.23 73.795 1242.02 73.245 1242.99 72.827C1243.98 72.409 1245.16 72.2 1246.52 72.2H1252.33V76.985H1247.94C1246.82 76.985 1246.06 77.183 1245.67 77.579C1245.29 77.975 1245.1 78.657 1245.1 79.625V92H1238.83V79.559ZM1282.19 86.819V92H1261.76V87.974C1261.76 86.918 1261.87 85.972 1262.09 85.136C1262.31 84.3 1262.69 83.53 1263.24 82.826C1263.79 82.1 1264.52 81.407 1265.42 80.747C1266.35 80.065 1267.5 79.361 1268.89 78.635L1274.13 75.896C1274.71 75.61 1275.11 75.335 1275.35 75.071C1275.6 74.785 1275.72 74.433 1275.72 74.015C1275.72 73.399 1275.51 72.981 1275.09 72.761C1274.67 72.541 1274.11 72.431 1273.41 72.431H1262.29V67.25H1273.97C1276.92 67.25 1279.07 67.789 1280.44 68.867C1281.8 69.923 1282.48 71.375 1282.48 73.223C1282.48 74.257 1282.33 75.148 1282.02 75.896C1281.71 76.644 1281.25 77.315 1280.63 77.909C1280.04 78.503 1279.3 79.075 1278.42 79.625C1277.54 80.153 1276.53 80.725 1275.39 81.341L1270.6 83.948C1269.85 84.344 1269.37 84.707 1269.15 85.037C1268.95 85.367 1268.85 85.741 1268.85 86.159V86.819H1282.19ZM1309.5 81.275C1309.5 82.925 1309.27 84.432 1308.8 85.796C1308.36 87.16 1307.68 88.326 1306.76 89.294C1305.86 90.262 1304.71 91.01 1303.33 91.538C1301.94 92.066 1300.32 92.33 1298.47 92.33H1295.97C1294.12 92.33 1292.5 92.066 1291.12 91.538C1289.73 90.988 1288.57 90.229 1287.65 89.261C1286.75 88.293 1286.07 87.127 1285.6 85.763C1285.16 84.377 1284.94 82.859 1284.94 81.209V77.777C1284.94 76.149 1285.16 74.664 1285.6 73.322C1286.07 71.98 1286.75 70.836 1287.65 69.89C1288.57 68.944 1289.73 68.218 1291.12 67.712C1292.5 67.184 1294.12 66.92 1295.97 66.92H1298.47C1300.32 66.92 1301.94 67.184 1303.33 67.712C1304.71 68.24 1305.86 68.977 1306.76 69.923C1307.68 70.869 1308.36 72.024 1308.8 73.388C1309.27 74.73 1309.5 76.215 1309.5 77.843V81.275ZM1291.87 82.265C1291.87 83.981 1292.22 85.202 1292.9 85.928C1293.6 86.632 1294.78 86.984 1296.43 86.984H1298.01C1299.66 86.984 1300.83 86.632 1301.51 85.928C1302.21 85.202 1302.57 83.981 1302.57 82.265V76.919C1302.57 75.203 1302.21 73.993 1301.51 73.289C1300.83 72.585 1299.66 72.233 1298.01 72.233H1296.43C1294.78 72.233 1293.6 72.585 1292.9 73.289C1292.22 73.993 1291.87 75.203 1291.87 76.919V82.265ZM1331.91 86.819V92H1311.48V87.974C1311.48 86.918 1311.59 85.972 1311.81 85.136C1312.03 84.3 1312.42 83.53 1312.97 82.826C1313.52 82.1 1314.25 81.407 1315.15 80.747C1316.07 80.065 1317.23 79.361 1318.61 78.635L1323.86 75.896C1324.43 75.61 1324.84 75.335 1325.08 75.071C1325.32 74.785 1325.44 74.433 1325.44 74.015C1325.44 73.399 1325.23 72.981 1324.82 72.761C1324.4 72.541 1323.84 72.431 1323.13 72.431H1312.01V67.25H1323.69C1326.64 67.25 1328.8 67.789 1330.16 68.867C1331.53 69.923 1332.21 71.375 1332.21 73.223C1332.21 74.257 1332.05 75.148 1331.75 75.896C1331.44 76.644 1330.98 77.315 1330.36 77.909C1329.77 78.503 1329.03 79.075 1328.15 79.625C1327.27 80.153 1326.26 80.725 1325.11 81.341L1320.33 83.948C1319.58 84.344 1319.1 84.707 1318.88 85.037C1318.68 85.367 1318.58 85.741 1318.58 86.159V86.819H1331.91ZM1338.62 88.205C1336.58 88.205 1335.07 87.798 1334.1 86.984C1333.15 86.148 1332.68 85.103 1332.68 83.849C1332.68 82.991 1332.88 82.155 1333.28 81.341C1333.69 80.505 1334.38 79.493 1335.32 78.305L1341.29 70.814C1342.24 69.626 1343.27 68.68 1344.4 67.976C1345.54 67.272 1346.77 66.92 1348.09 66.92H1348.95C1350.47 66.92 1351.74 67.393 1352.78 68.339C1353.83 69.285 1354.36 70.781 1354.36 72.827V83.156H1358.16V88.205H1354.36V92H1347.93V88.205H1338.62ZM1340.54 83.156H1347.93V73.355C1347.93 73.135 1347.87 72.981 1347.76 72.893C1347.65 72.783 1347.51 72.728 1347.33 72.728C1347.2 72.728 1347.08 72.772 1346.97 72.86C1346.88 72.926 1346.79 73.025 1346.71 73.157L1339.94 81.836C1339.85 81.968 1339.78 82.089 1339.71 82.199C1339.67 82.309 1339.64 82.419 1339.64 82.529C1339.64 82.705 1339.7 82.859 1339.81 82.991C1339.94 83.101 1340.18 83.156 1340.54 83.156Z" fill="#F47519"/>
</svg>
